<?xml version="1.0" encoding="UTF-8"?> <svg xmlns="http://www.w3.org/2000/svg" width="50" height="50" viewBox="0 0 50 50" fill="none"> <circle cx="25" cy="25" r="25" fill="#E31E24"></circle> <path fill-rule="evenodd" clip-rule="evenodd" d="M32.5637 34.913L32.5645 34.9109L32.5848 34.8584L36.0833 16.5895V16.5301C36.0833 16.075 35.921 15.6776 35.5676 15.4392C35.2583 15.2306 34.9027 15.2157 34.6534 15.2353C34.3897 15.2561 34.1411 15.3242 33.969 15.381C33.8804 15.4102 33.8063 15.4383 33.7533 15.4596C33.7267 15.4703 33.7051 15.4793 33.6895 15.4861L33.6741 15.4928L14.1676 23.4182L14.1622 23.4202C14.1517 23.4241 14.1378 23.4295 14.1209 23.4363C14.0874 23.4498 14.0417 23.4692 13.9881 23.4944C13.8828 23.5438 13.7372 23.6201 13.5896 23.7248C13.339 23.9026 12.8617 24.3234 12.9423 24.9907C13.009 25.5434 13.3769 25.8944 13.6249 26.0762C13.7578 26.1736 13.885 26.2439 13.9781 26.2898C14.0253 26.313 14.0654 26.3309 14.0953 26.3435C14.1102 26.3498 14.1227 26.3548 14.1324 26.3586L14.1448 26.3634L14.1528 26.3665L17.5655 27.5564C17.554 27.7782 17.5753 28.0043 17.632 28.2274L19.3415 34.9438C19.5442 35.7402 20.2398 36.2949 21.035 36.2943C21.7477 36.2938 22.3799 35.8472 22.6484 35.1809L25.3174 32.2252L29.9012 35.865L29.9664 35.8945C30.3828 36.0827 30.7719 36.1423 31.1277 36.092C31.4829 36.0417 31.7652 35.8874 31.9773 35.7117C32.1859 35.5388 32.329 35.3437 32.4189 35.1967C32.4646 35.1221 32.4986 35.0565 32.5223 35.0071C32.5341 34.9823 32.5435 34.9613 32.5505 34.945L32.5593 34.9239L32.5624 34.9162L32.5637 34.913ZM19.3242 27.7654C19.2853 27.6127 19.3463 27.4516 19.475 27.367L31.0507 19.7534C31.0507 19.7534 31.7315 19.3253 31.7072 19.7534C31.7072 19.7534 31.8287 19.829 31.4639 20.1815C31.1178 20.5163 23.2136 28.4201 22.4138 29.2198C22.3676 29.266 22.34 29.319 22.3238 29.3833L21.0337 34.4818L19.3242 27.7654Z" fill="white"></path> </svg> 