<?xml version="1.0" encoding="UTF-8"?> <svg xmlns="http://www.w3.org/2000/svg" width="50" height="50" viewBox="0 0 50 50" fill="none"> <circle cx="25" cy="25" r="25" fill="#E31E24"></circle> <path fill-rule="evenodd" clip-rule="evenodd" d="M30.6763 16.6275C27.5301 15.9242 24.2675 15.9242 21.1213 16.6275L20.7822 16.7032C18.9774 17.1067 17.553 18.4909 17.0981 20.2834C16.3006 23.4259 16.3006 26.7178 17.0981 29.8603C17.5326 31.5726 18.8519 32.9123 20.5422 33.3805L21.0069 36.1563C21.037 36.336 21.1625 36.4852 21.3344 36.5455C21.5064 36.6059 21.6976 36.5679 21.8334 36.4463L24.5641 34.003C26.6086 34.1279 28.6662 33.9656 30.6763 33.5163L31.0153 33.4405C32.8201 33.0371 34.2446 31.6528 34.6995 29.8603C35.4969 26.7178 35.4969 23.4259 34.6995 20.2834C34.2446 18.4909 32.8201 17.1067 31.0153 16.7032L30.6763 16.6275ZM21.9647 20.2018C21.779 20.1747 21.5895 20.212 21.4279 20.3075H21.4141C21.0389 20.5274 20.7009 20.8054 20.4127 21.1311C20.1732 21.408 20.0432 21.6882 20.0091 21.9579C19.9888 22.1187 20.0025 22.2795 20.0504 22.4331L20.0675 22.4436C20.3372 23.2363 20.6896 23.9989 21.1201 24.7168C21.6747 25.7254 22.3571 26.6582 23.1506 27.4921L23.1742 27.5262L23.2116 27.5538L23.2352 27.5813L23.2628 27.605C24.0997 28.4007 25.0347 29.0864 26.0453 29.6452C27.2003 30.2739 27.9012 30.5712 28.3218 30.6946V30.7012C28.4452 30.7386 28.5574 30.7556 28.6703 30.7556C29.0288 30.7294 29.3682 30.5838 29.6343 30.3422C29.9585 30.0539 30.2334 29.7145 30.4481 29.3375V29.3309C30.6495 28.9516 30.5813 28.5926 30.2906 28.3498C29.7083 27.8409 29.0788 27.3889 28.4104 26.9999C27.9628 26.7571 27.5081 26.9041 27.3237 27.1502L26.9306 27.6457C26.7291 27.8917 26.3629 27.8576 26.3629 27.8576L26.3524 27.8642C23.6218 27.1666 22.8933 24.4018 22.8933 24.4018C22.8933 24.4018 22.8592 24.0258 23.1118 23.8342L23.604 23.4378C23.8396 23.2462 24.0037 22.792 23.751 22.3438C23.3648 21.6745 22.9137 21.0448 22.4044 20.4637C22.2931 20.3266 22.1369 20.2334 21.9634 20.2005L21.9647 20.2018ZM26.5792 19C26.3031 19 26.0792 19.2239 26.0792 19.5C26.0792 19.7761 26.3031 20 26.5792 20C27.8437 20 28.8944 20.4133 29.7245 21.2048C30.1518 21.6381 30.4844 22.1511 30.7028 22.7125C30.922 23.276 31.0217 23.8769 30.9961 24.4788C30.9844 24.7547 31.1985 24.9878 31.4744 24.9995C31.7503 25.0113 31.9835 24.7971 31.9952 24.5212C32.0267 23.7808 31.9039 23.042 31.6347 22.35C31.3655 21.658 30.9558 21.0274 30.4307 20.4965L30.4207 20.4869C29.3907 19.5018 28.0851 19 26.5792 19ZM26.5452 20.6443C26.2691 20.6443 26.0452 20.8682 26.0452 21.1443C26.0452 21.4205 26.2691 21.6443 26.5452 21.6443H26.5615C27.474 21.7086 28.1379 22.0128 28.6034 22.512C29.0799 23.0262 29.3267 23.6648 29.3084 24.455C29.302 24.731 29.5207 24.96 29.7967 24.9664C30.0728 24.9728 30.3018 24.7542 30.3082 24.4781C30.3322 23.4406 29.9985 22.546 29.3363 21.8317L29.3354 21.8307C28.6588 21.1046 27.7305 20.7205 26.6122 20.6454L26.5955 20.6443H26.5452ZM26.5263 22.3187C26.2505 22.3042 26.0152 22.5159 26.0007 22.7917C25.9862 23.0675 26.198 23.3028 26.4737 23.3173C26.8924 23.3393 27.1592 23.4649 27.327 23.6343C27.4956 23.8045 27.6216 24.077 27.6446 24.5042C27.6595 24.78 27.895 24.9915 28.1708 24.9766C28.4465 24.9618 28.658 24.7263 28.6432 24.4505C28.6109 23.8505 28.4231 23.32 28.0376 22.9307C27.6513 22.5406 27.1238 22.3501 26.5263 22.3187Z" fill="white"></path> </svg> 