<?xml version="1.0" encoding="UTF-8"?> <svg xmlns="http://www.w3.org/2000/svg" width="50" height="50" viewBox="0 0 50 50" fill="none"> <circle cx="25" cy="25" r="25" fill="#E31E24"></circle> <path d="M34.5035 31.381H32.222C31.3588 31.381 31.0992 30.682 29.5511 29.1339C28.2 27.8313 27.6292 27.6686 27.2868 27.6686C26.8145 27.6686 26.6847 27.7984 26.6847 28.4505V30.5021C26.6847 31.0573 26.5049 31.3825 25.0553 31.3825C23.6485 31.288 22.2842 30.8606 21.0749 30.1355C19.8656 29.4104 18.8459 28.4084 18.0997 27.212C16.3283 25.0071 15.0957 22.4193 14.5 19.6544C14.5 19.312 14.6298 19.0023 15.2819 19.0023H17.5618C18.1482 19.0023 18.3593 19.2635 18.5892 19.8655C19.6963 23.1244 21.5853 25.9579 22.3516 25.9579C22.6456 25.9579 22.7738 25.8281 22.7738 25.0947V21.7389C22.6768 20.208 21.8637 20.0782 21.8637 19.5246C21.8741 19.3786 21.941 19.2424 22.0502 19.1449C22.1594 19.0474 22.3023 18.9963 22.4485 19.0023H26.0326C26.5221 19.0023 26.6847 19.2463 26.6847 19.8327V24.3613C26.6847 24.8508 26.8958 25.0134 27.0428 25.0134C27.3368 25.0134 27.5635 24.8508 28.1015 24.3128C29.2569 22.9038 30.2009 21.334 30.9037 19.6529C30.9756 19.4509 31.1115 19.278 31.2908 19.1606C31.4701 19.0431 31.6829 18.9876 31.8967 19.0023H34.1782C34.8616 19.0023 35.007 19.3448 34.8616 19.8327C34.032 21.6911 33.0055 23.4552 31.7997 25.0947C31.5542 25.47 31.4557 25.6655 31.7997 26.1049C32.0265 26.4473 32.8256 27.1151 33.3635 27.7499C34.1452 28.5297 34.7944 29.4319 35.2853 30.4208C35.4808 31.0557 35.154 31.381 34.5035 31.381Z" fill="white"></path> </svg> 