<?xml version="1.0" encoding="UTF-8"?> <svg xmlns="http://www.w3.org/2000/svg" width="50" height="50" viewBox="0 0 50 50" fill="none"> <circle cx="25" cy="25" r="25" fill="#E31E24"></circle> <g clip-path="url(#clip0_1539_11)"> <path d="M34.68 18.98C31.44 13.8 24.825 12.26 19.695 15.48C14.7 18.7 13.08 25.7 16.32 30.88L16.59 31.3L15.51 35.5L19.56 34.38L19.965 34.66C21.72 35.64 23.61 36.2 25.5 36.2C27.525 36.2 29.55 35.64 31.305 34.52C36.3 31.16 37.785 24.3 34.68 18.98ZM31.845 29.76C31.305 30.6 30.63 31.16 29.685 31.3C29.145 31.3 28.47 31.58 25.77 30.46C23.475 29.34 21.585 27.52 20.235 25.42C19.425 24.44 19.02 23.18 18.885 21.92C18.885 20.8 19.29 19.82 19.965 19.12C20.235 18.84 20.505 18.7 20.775 18.7H21.45C21.72 18.7 21.99 18.7 22.125 19.26C22.395 19.96 23.07 21.64 23.07 21.78C23.205 21.92 23.205 22.2 23.07 22.34C23.205 22.62 23.07 22.9 22.935 23.04C22.8 23.18 22.665 23.46 22.53 23.6C22.26 23.74 22.125 24.02 22.26 24.3C22.8 25.14 23.475 25.98 24.15 26.68C24.96 27.38 25.77 27.94 26.715 28.36C26.985 28.5 27.255 28.5 27.39 28.22C27.525 27.94 28.2 27.24 28.47 26.96C28.74 26.68 28.875 26.68 29.145 26.82L31.305 27.94C31.575 28.08 31.845 28.22 31.98 28.36C32.115 28.78 32.115 29.34 31.845 29.76Z" fill="white"></path> </g> <defs> <clipPath id="clip0_1539_11"> <rect width="27" height="28" fill="white" transform="translate(12 11)"></rect> </clipPath> </defs> </svg> 