<?xml version="1.0" encoding="UTF-8"?> <svg xmlns="http://www.w3.org/2000/svg" width="50" height="50" viewBox="0 0 50 50" fill="none"> <circle cx="25" cy="25" r="25" fill="#E31E24"></circle> <g clip-path="url(#clip0_1493_40)"> <path fill-rule="evenodd" clip-rule="evenodd" d="M22.385 28.3619V21.0666C24.9748 22.2852 26.9807 23.4625 29.353 24.7317C27.3963 25.8168 24.9748 27.0344 22.385 28.3619ZM36.8183 17.4383C36.3716 16.8497 35.6101 16.3915 34.7995 16.2398C32.4168 15.7874 17.5523 15.7861 15.1709 16.2398C14.5208 16.3617 13.942 16.6562 13.4447 17.1139C11.3495 19.0586 12.0061 29.4872 12.5111 31.1765C12.7235 31.9077 12.998 32.435 13.3437 32.7812C13.7892 33.2388 14.3991 33.5539 15.0997 33.6952C17.0615 34.101 27.1684 34.3279 34.7581 33.7562C35.4573 33.6343 36.0763 33.3091 36.5645 32.832C38.5017 30.8951 38.3696 19.8808 36.8183 17.4383Z" fill="white"></path> </g> <defs> <clipPath id="clip0_1493_40"> <rect width="26" height="26" fill="white" transform="translate(12 12)"></rect> </clipPath> </defs> </svg> 